<?xml version="1.0" standalone="no"?>
<!DOCTYPE svg PUBLIC "-//W3C//DTD SVG 20010904//EN"
 "http://www.w3.org/TR/2001/REC-SVG-20010904/DTD/svg10.dtd">
<svg version="1.0" xmlns="http://www.w3.org/2000/svg"
 width="700.000000pt" height="700.000000pt" viewBox="0 0 700.000000 700.000000"
 preserveAspectRatio="xMidYMid meet">
<metadata>
Created by potrace 1.14, written by Peter Selinger 2001-2017
</metadata>
<g transform="translate(0.000000,700.000000) scale(0.100000,-0.100000)"
fill="#000000" stroke="none">
<path d="M4040 4637 c-3 -3 -43 -8 -89 -11 -47 -4 -96 -13 -110 -21 -53 -29
-78 -37 -136 -46 -117 -18 -121 -19 -139 -54 -14 -25 -16 -37 -7 -53 8 -14 8
-29 1 -47 -14 -36 -13 -45 5 -45 8 0 19 -9 25 -20 6 -11 17 -20 25 -20 15 0
40 -38 31 -47 -3 -3 -20 -1 -38 4 -30 10 -31 11 -8 13 l25 1 -24 10 c-24 9
-51 -3 -51 -23 0 -15 27 -38 44 -38 21 0 20 -10 -3 -37 -26 -31 -56 -29 -74 5
-29 57 -60 108 -85 142 -15 19 -47 68 -72 109 -58 94 -96 117 -208 125 -67 5
-88 2 -127 -15 -27 -12 -50 -30 -55 -44 -5 -13 -14 -26 -19 -30 -16 -10 -13
-25 5 -25 12 0 15 -6 10 -25 -7 -29 10 -69 25 -59 7 4 9 -1 7 -12 -4 -23 -38
-32 -38 -10 0 25 -29 19 -42 -9 -14 -30 5 -75 32 -75 9 0 28 -6 43 -12 22 -11
26 -18 22 -39 -7 -31 14 -56 53 -64 15 -3 43 -11 62 -17 19 -6 52 -13 73 -14
21 -1 39 -4 40 -5 18 -32 57 -123 57 -133 0 -7 9 -25 20 -39 34 -43 27 -47
-78 -43 -55 1 -103 5 -108 8 -9 6 -150 11 -214 9 -38 -1 -137 -60 -147 -88 -3
-9 0 -21 8 -27 8 -6 13 -18 13 -26 -1 -8 -2 -27 -3 -42 -1 -20 -6 -28 -20 -28
-20 0 -31 -18 -31 -50 0 -26 78 -54 128 -47 65 11 152 -26 152 -65 0 -25 9
-26 53 -9 56 21 90 49 111 89 15 29 21 32 49 28 117 -19 182 -26 197 -21 31
10 75 -65 47 -82 -8 -4 -30 -28 -49 -53 -19 -25 -69 -81 -111 -124 -43 -43
-87 -92 -98 -108 -20 -27 -20 -31 -5 -61 13 -27 13 -34 1 -46 -20 -20 -38 -9
-64 43 -14 25 -29 50 -35 54 -20 15 -90 30 -139 31 -60 0 -94 -12 -134 -51
l-31 -30 19 -32 c16 -28 17 -36 5 -76 -11 -36 -18 -45 -34 -43 -17 2 -23 -5
-27 -31 -14 -71 37 -112 146 -119 42 -3 69 -21 69 -48 0 -40 75 -50 133 -19
21 12 55 20 75 20 20 -1 52 -2 70 -2 25 -1 41 6 61 28 15 16 57 54 92 84 35
30 84 73 109 96 25 22 59 50 77 62 17 13 35 31 38 42 9 27 32 25 40 -2 3 -13
12 -39 20 -58 18 -46 28 -74 30 -80 0 -3 13 -31 29 -62 26 -55 29 -58 65 -58
40 0 71 -23 71 -53 0 -20 -8 -21 -46 -7 -44 17 -122 20 -157 5 -36 -15 -49
-39 -71 -140 -16 -73 -11 -95 24 -95 10 0 36 -21 58 -47 27 -33 55 -54 88 -66
l49 -18 26 33 c29 35 41 37 173 22 83 -9 106 5 105 65 -1 25 6 67 15 94 9 26
19 66 22 90 7 43 24 112 51 202 27 87 24 98 -24 107 -59 12 -67 26 -57 95 4
32 8 63 7 70 0 7 9 15 21 18 121 35 164 76 191 183 16 62 14 109 -8 230 -29
148 -37 217 -33 277 6 114 28 188 34 118 3 -37 42 -75 93 -91 52 -16 68 -5 51
34 -13 28 -4 79 24 141 8 17 17 51 20 75 5 38 3 48 -22 77 -33 39 -71 56 -90
40 -7 -6 -18 -8 -24 -4 -6 4 -16 2 -23 -3 -7 -5 -24 -12 -39 -16 -26 -6 -26
-5 -38 67 -18 115 -27 141 -63 175 -31 30 -39 32 -122 38 -50 4 -92 4 -95 1z
m104 -29 c26 0 49 -4 51 -8 3 -5 -39 -7 -92 -7 -54 1 -115 -2 -135 -6 -22 -5
-38 -4 -38 1 0 11 126 31 151 25 10 -2 38 -4 63 -5z m-227 -24 c-3 -3 -23 -8
-44 -11 -28 -3 -34 -1 -23 6 16 11 78 15 67 5z m-797 -36 c0 -5 -4 -7 -10 -3
-5 3 -25 -1 -44 -9 -23 -10 -38 -11 -42 -5 -7 12 -7 12 31 25 33 11 65 7 65
-8z m688 -4 c-3 -2 -38 -11 -79 -19 -41 -7 -82 -17 -91 -20 -10 -4 -18 -3 -18
3 0 10 74 32 112 32 13 0 34 6 48 13 21 11 41 5 28 -9z m-615 -1 c-7 -2 -19
-2 -25 0 -7 3 -2 5 12 5 14 0 19 -2 13 -5z m977 -33 c12 -22 18 -66 27 -189 6
-89 -17 -237 -44 -276 -7 -11 -13 -29 -13 -41 0 -12 -7 -27 -15 -34 -8 -7 -15
-21 -15 -32 0 -20 -65 -128 -77 -128 -9 0 -33 -48 -33 -66 0 -7 -9 -16 -20
-19 -11 -3 -20 -10 -20 -15 0 -5 -16 -25 -36 -45 -31 -31 -35 -40 -28 -68 3
-18 15 -48 25 -67 54 -104 110 -236 110 -259 0 -14 -4 -59 -8 -98 -10 -86 4
-129 53 -153 28 -14 29 -18 21 -45 -37 -121 -69 -244 -69 -266 -1 -26 -1 -26
-82 -26 -45 0 -93 -3 -108 -7 -23 -7 -29 -4 -39 18 -7 14 -18 26 -26 26 -7 0
-13 9 -13 21 0 19 4 20 43 14 23 -4 61 -13 85 -21 31 -10 49 -11 62 -4 68 36
103 119 77 181 -22 54 -63 96 -100 103 -31 6 -38 15 -82 104 -27 53 -48 100
-47 105 1 4 -2 7 -6 7 -5 0 -15 19 -22 43 -7 23 -21 60 -32 82 l-21 39 -23
-27 c-13 -15 -26 -27 -29 -27 -12 0 -75 -55 -75 -65 0 -6 -14 -19 -31 -29 -16
-10 -45 -32 -63 -49 -18 -18 -45 -41 -61 -52 -36 -25 -55 -44 -55 -55 0 -4
-14 -13 -30 -20 -17 -7 -33 -23 -36 -35 -6 -25 -37 -36 -113 -41 -24 -2 -49
-8 -55 -14 -12 -12 -56 -14 -56 -2 0 17 -45 37 -112 49 -32 6 -34 19 -16 90
19 74 50 85 74 28 8 -19 19 -35 24 -35 6 0 10 -8 10 -17 0 -10 9 -33 21 -52
l20 -34 69 6 c37 3 78 12 90 19 24 15 82 103 73 112 -3 3 -1 11 4 18 5 7 8 32
7 55 -3 38 2 48 37 85 22 24 46 54 53 68 8 14 24 32 37 40 12 8 29 24 38 34 9
11 38 44 65 73 l48 53 -18 37 c-10 21 -19 43 -19 48 -1 14 -36 84 -45 90 -4 2
-36 7 -71 10 -35 3 -99 10 -142 16 -42 5 -81 7 -86 4 -5 -3 -21 -1 -35 5 -31
12 -142 17 -152 7 -4 -4 -1 -18 6 -32 12 -22 12 -28 -1 -40 -13 -14 -19 -14
-47 1 -18 9 -52 18 -75 21 -23 2 -43 6 -45 8 -2 1 5 20 15 41 l18 37 90 -2
c49 -1 92 -4 95 -6 3 -2 84 -6 180 -10 96 -3 183 -8 192 -11 27 -8 39 25 20
55 -9 14 -19 28 -23 31 -3 3 -9 22 -13 43 -4 20 -11 37 -17 37 -8 0 -25 31
-52 100 -5 14 -13 32 -18 40 -5 8 -23 44 -40 80 -31 66 -43 80 -68 80 -9 0
-11 -7 -7 -25 6 -25 6 -25 -58 -25 -36 0 -67 3 -69 8 -3 4 13 6 34 6 49 -2 81
5 73 17 -3 5 -20 9 -39 9 -50 0 -82 15 -89 44 -3 14 -22 36 -42 50 -21 14 -31
27 -25 31 6 3 8 11 5 17 -3 5 2 28 12 49 17 36 22 40 49 34 17 -3 37 -6 45 -6
19 -2 70 -49 70 -64 0 -7 16 -33 35 -58 19 -25 35 -52 35 -60 0 -8 11 -25 25
-38 13 -13 25 -27 25 -31 0 -8 48 -80 58 -88 8 -6 30 -42 54 -92 10 -20 23
-40 29 -44 6 -3 27 10 48 30 20 20 42 36 48 36 7 0 19 10 28 23 12 15 19 18
22 10 3 -7 14 -13 25 -13 11 0 37 -5 58 -11 83 -25 175 55 200 174 10 50 9 61
-4 82 -9 13 -16 30 -16 37 0 7 -13 22 -28 33 -29 21 -94 26 -164 10 -34 -7
-38 -6 -38 13 0 28 9 32 87 43 37 5 73 14 80 21 7 6 16 8 20 5 3 -4 13 -1 21
6 16 14 140 34 219 36 43 1 54 -3 63 -19z m-356 -118 c7 -11 -108 -39 -130
-31 -15 5 -7 10 31 22 57 17 92 20 99 9z m641 -41 c3 -6 -9 -14 -27 -19 -18
-6 -41 -13 -50 -17 -33 -13 -19 15 15 29 39 17 54 19 62 7z m-639 -73 c1 -22
-4 -28 -19 -28 -20 0 -20 0 -2 14 18 13 17 14 -13 21 -42 9 -41 27 1 23 27 -3
32 -7 33 -30z m-45 -68 c21 -12 26 -40 6 -40 -22 0 -51 26 -43 38 9 15 12 15
37 2z m-166 -49 c-3 -6 -14 -11 -23 -11 -15 1 -15 2 2 15 21 16 32 13 21 -4z
m-660 -261 c-3 -5 -15 -10 -25 -10 -10 0 -22 -4 -25 -10 -9 -14 -35 -13 -35 2
0 6 3 9 6 6 3 -4 17 0 32 8 31 16 56 18 47 4z m125 -11 c0 -5 -15 -9 -32 -9
-20 0 -28 3 -21 8 18 11 53 12 53 1z m130 -5 c0 -2 -18 -4 -40 -4 -22 0 -40 3
-40 8 0 4 18 6 40 4 22 -2 40 -6 40 -8z m80 -4 c12 -7 8 -10 -15 -10 -16 0
-37 5 -45 10 -12 7 -8 10 15 10 17 0 37 -5 45 -10z m935 -87 c3 -32 13 -77 20
-99 8 -23 16 -80 19 -127 l6 -86 -34 -35 c-45 -49 -88 -50 -107 -3 -7 17 -16
34 -19 37 -12 9 -50 95 -55 125 -5 26 0 35 35 64 22 19 40 40 40 48 0 8 16 35
35 60 19 25 35 52 35 59 0 8 4 14 9 14 5 0 12 -26 16 -57z m-885 -63 c0 -5 -2
-10 -4 -10 -3 0 -8 5 -11 10 -3 6 -1 10 4 10 6 0 11 -4 11 -10z m179 -6 c12
-11 -14 -13 -82 -8 -42 4 -74 11 -71 15 5 8 143 1 153 -7z m-684 -4 c-3 -5
-11 -10 -16 -10 -6 0 -7 5 -4 10 3 6 11 10 16 10 6 0 7 -4 4 -10z m285 -14 c0
-3 -4 -8 -10 -11 -5 -3 -10 -1 -10 4 0 6 5 11 10 11 6 0 10 -2 10 -4z m370
-196 c0 -5 -5 -10 -11 -10 -5 0 -7 5 -4 10 3 6 8 10 11 10 2 0 4 -4 4 -10z
m-70 -85 c-7 -8 -17 -15 -22 -15 -6 0 -5 7 2 15 7 8 17 15 22 15 6 0 5 -7 -2
-15z m290 -99 c0 -7 -15 -25 -33 -39 -18 -14 -49 -40 -69 -58 -110 -103 -150
-133 -169 -127 -6 2 15 24 47 48 32 25 87 72 121 105 99 96 103 99 103 71z
m-280 -245 c0 -5 -13 -19 -30 -31 -34 -24 -40 -14 -10 18 22 23 40 29 40 13z
m-73 -63 c-3 -8 -6 -5 -6 6 -1 11 2 17 5 13 3 -3 4 -12 1 -19z m-17 -13 c0 -8
-14 -22 -32 -31 l-32 -17 29 32 c34 36 35 36 35 16z m-130 -40 c0 -7 -57 -35
-71 -35 -9 0 -9 4 1 14 10 13 21 17 63 25 4 0 7 -1 7 -4z m695 -315 c3 -6 -4
-10 -17 -10 -18 0 -20 2 -8 10 19 12 18 12 25 0z"/>
<path d="M1016 2473 c-32 -125 -61 -238 -63 -250 -6 -25 7 -30 97 -37 36 -3
89 -10 119 -16 80 -15 78 -16 94 53 15 69 16 69 112 47 170 -38 231 -34 300
20 24 19 44 42 45 51 0 9 7 23 16 30 15 12 16 10 11 -16 -3 -17 -9 -50 -13
-75 -3 -25 -9 -49 -12 -55 -4 -5 -7 -17 -9 -25 -1 -8 -7 -34 -14 -58 -6 -23
-10 -45 -7 -47 3 -3 27 -7 54 -9 27 -3 94 -10 149 -16 55 -6 107 -9 117 -7 10
3 20 1 23 -3 6 -9 66 -18 162 -25 70 -4 75 -1 87 67 5 30 3 39 -11 46 -14 8
-201 32 -245 32 -11 0 -6 70 5 72 4 1 70 -7 147 -17 77 -10 142 -17 144 -14 2
2 6 29 10 60 l6 56 -141 18 -140 18 6 26 c11 44 -2 43 220 16 28 -4 56 -8 63
-11 7 -2 16 -3 20 -3 10 0 20 -44 12 -56 -4 -5 -15 -49 -25 -97 -20 -98 -15
-122 43 -185 36 -39 152 -93 199 -93 19 0 42 -4 52 -10 27 -14 137 6 201 38
60 29 120 104 120 148 0 13 5 24 10 24 6 0 10 -20 10 -43 0 -126 105 -212 285
-236 50 -7 134 -19 188 -28 54 -8 109 -12 123 -9 14 4 30 3 37 -1 7 -4 21 -8
32 -9 99 -7 377 -43 415 -54 94 -29 160 -17 160 28 0 9 3 26 6 37 11 42 -15
56 -112 61 -80 3 -102 8 -154 34 -21 10 -25 49 -5 56 15 6 237 -19 293 -33 15
-3 22 -13 22 -28 0 -13 5 -27 10 -30 6 -3 10 -17 10 -31 0 -13 5 -24 10 -24 6
0 15 -11 22 -25 10 -21 115 -105 133 -105 4 0 19 -9 34 -20 15 -10 36 -19 47
-19 10 0 53 -4 94 -9 95 -12 186 -4 215 18 6 4 25 11 44 15 45 10 132 96 161
160 17 38 21 62 18 107 -3 37 0 58 6 59 29 3 92 -4 111 -11 l23 -9 -33 -160
c-18 -88 -36 -168 -39 -178 -3 -10 -2 -24 2 -31 9 -13 158 -36 174 -26 5 3 14
1 21 -4 7 -5 31 -13 54 -17 39 -6 43 -5 47 17 3 13 20 100 39 193 29 153 34
170 52 168 11 -1 47 -5 81 -8 l61 -7 11 58 c19 93 19 92 -40 94 -57 1 -110 6
-118 10 -3 2 -16 4 -30 5 -55 5 -141 16 -265 34 -86 13 -135 16 -147 10 -22
-12 -24 -47 -3 -55 8 -4 12 -10 9 -15 -11 -19 -36 -8 -83 36 -26 25 -52 45
-56 45 -5 0 -16 6 -24 14 -9 8 -52 24 -96 36 -99 27 -274 30 -311 5 -13 -8
-31 -15 -41 -15 -18 0 -84 -42 -119 -77 -36 -36 -61 -76 -69 -110 -10 -51 -27
-40 -19 12 5 35 3 45 -7 45 -8 0 -43 4 -79 9 -36 5 -87 12 -115 16 -82 10 -85
12 -72 44 9 25 15 28 48 25 21 -1 44 -6 51 -10 7 -5 47 -10 88 -12 41 -1 84
-4 94 -5 16 -2 22 8 31 55 9 42 9 60 1 67 -6 5 -60 14 -121 20 -95 10 -155 18
-215 26 -8 1 -53 8 -100 14 -47 7 -94 15 -106 17 -30 8 -56 -22 -53 -60 1 -17
-4 -44 -10 -61 -7 -16 -24 -86 -38 -155 -38 -192 -40 -200 -47 -207 -3 -4 -12
-1 -18 5 -9 9 -8 28 6 79 10 38 20 84 23 104 l5 36 -73 7 c-40 3 -82 9 -95 12
-17 4 -25 -1 -37 -25 -8 -17 -18 -44 -22 -61 -6 -25 -11 -30 -37 -30 -47 0
-87 29 -99 72 -18 68 4 125 64 162 27 17 87 29 87 17 0 -10 49 -20 124 -27 27
-3 52 -7 57 -9 4 -3 20 -2 36 1 27 5 31 11 42 66 15 71 8 80 -51 76 -21 -2
-38 -1 -38 3 0 4 -15 6 -32 5 -18 -1 -53 4 -78 11 -58 18 -229 33 -255 23 -11
-4 -40 -14 -65 -21 -50 -15 -150 -106 -150 -136 0 -22 -17 -50 -25 -41 -3 3 6
50 20 104 38 141 39 135 -20 140 -27 2 -63 5 -79 6 -30 3 -30 3 -52 -92 -12
-52 -28 -121 -34 -153 -15 -75 -41 -104 -102 -112 -42 -6 -48 -5 -63 19 -18
27 -27 104 -13 112 4 3 8 22 8 43 0 33 19 116 37 161 3 8 6 24 7 35 0 18 -8
21 -79 26 -44 4 -107 12 -140 18 -33 6 -61 11 -62 11 -1 0 -4 -17 -8 -38 -3
-20 -10 -44 -15 -52 -16 -26 -24 -1 -13 45 10 42 9 45 -11 46 -11 1 -25 1 -29
0 -4 -1 -31 5 -60 14 -29 8 -92 18 -142 21 -49 4 -106 8 -125 11 -19 2 -47 5
-62 7 -16 2 -29 4 -30 5 -2 2 -20 5 -42 7 -21 3 -41 5 -45 6 -27 3 -38 -13
-46 -72 -2 -14 -7 -44 -10 -68 -8 -56 -30 -50 -30 9 -1 54 -42 116 -94 143
-35 17 -264 55 -376 61 -93 6 -158 12 -185 19 l-25 7 -59 -228z m466 42 c44
-5 74 -14 87 -26 34 -32 24 -82 -22 -106 -23 -12 -229 18 -235 35 -2 6 4 34
13 61 18 54 10 53 157 36z m1158 -45 c0 -15 -30 -19 -55 -8 -36 16 -31 24 15
20 22 -2 40 -8 40 -12z m2197 -371 c50 -31 75 -94 63 -159 -16 -86 -79 -134
-179 -135 -45 0 -61 4 -81 22 -14 13 -28 23 -32 23 -11 0 -34 50 -41 88 -13
64 45 149 123 181 35 15 106 5 147 -20z m-1262 -19 c-3 -5 -12 -7 -20 -3 -21
7 -19 13 6 13 11 0 18 -4 14 -10z"/>
</g>
</svg>
